<svg width="20" height="20" viewBox="0 0 20 20" fill="none" xmlns="http://www.w3.org/2000/svg">
<path d="M1.66675 10.0001C1.66675 6.07171 1.66675 4.10753 2.88713 2.88713C4.10753 1.66675 6.07171 1.66675 10.0001 1.66675C13.9284 1.66675 15.8927 1.66675 17.113 2.88713C18.3334 4.10753 18.3334 6.07171 18.3334 10.0001C18.3334 13.9284 18.3334 15.8927 17.113 17.113C15.8927 18.3334 13.9284 18.3334 10.0001 18.3334C6.07171 18.3334 4.10753 18.3334 2.88713 17.113C1.66675 15.8927 1.66675 13.9284 1.66675 10.0001Z" stroke="#808080" stroke-width="1.5625"/>
<path d="M1.66675 11.165C2.31156 11.083 2.96346 11.0426 3.61645 11.0439C6.37888 10.9929 9.07366 11.746 11.22 13.169C13.2105 14.4888 14.6091 16.3051 15.2084 18.3332" stroke="#808080" stroke-width="1.5625" stroke-linejoin="round"/>
<path d="M13.1249 6.875H13.1333" stroke="#808080" stroke-width="2.08333" stroke-linecap="round" stroke-linejoin="round"/>
</svg>
