<svg width="1659" height="948" viewBox="0 0 1659 948" fill="none" xmlns="http://www.w3.org/2000/svg">
<path fill-rule="evenodd" clip-rule="evenodd" d="M42 70.7778C42 31.6883 72.4695 0 110.056 0H212.139C217.508 0 221.861 4.5269 221.861 10.1111C221.861 15.6953 217.508 20.2222 212.139 20.2222H110.056C83.2084 20.2222 61.4444 42.8567 61.4444 70.7778V176.944C61.4444 182.529 57.0917 187.056 51.7222 187.056C46.3528 187.056 42 182.529 42 176.944V70.7778Z" fill="url(#paint0_linear_1_667)"/>
<path fill-rule="evenodd" clip-rule="evenodd" d="M42 839.222C42 878.312 72.4695 910 110.056 910H212.139C217.508 910 221.861 905.473 221.861 899.889C221.861 894.305 217.508 889.778 212.139 889.778H110.056C83.2084 889.778 61.4444 867.143 61.4444 839.222V733.056C61.4444 727.471 57.0917 722.945 51.7222 722.945C46.3528 722.945 42 727.471 42 733.056V839.222Z" fill="url(#paint1_linear_1_667)"/>
<path fill-rule="evenodd" clip-rule="evenodd" d="M1617 70.7778C1617 31.6883 1586.53 0 1548.94 0H1446.86C1441.49 0 1437.14 4.5269 1437.14 10.1111C1437.14 15.6953 1441.49 20.2222 1446.86 20.2222H1548.94C1575.79 20.2222 1597.56 42.8567 1597.56 70.7778V176.944C1597.56 182.529 1601.91 187.056 1607.28 187.056C1612.65 187.056 1617 182.529 1617 176.944V70.7778Z" fill="url(#paint2_linear_1_667)"/>
<path fill-rule="evenodd" clip-rule="evenodd" d="M1617 839.222C1617 878.312 1586.53 910 1548.94 910H1446.86C1441.49 910 1437.14 905.473 1437.14 899.889C1437.14 894.305 1441.49 889.778 1446.86 889.778H1548.94C1575.79 889.778 1597.56 867.143 1597.56 839.222V733.056C1597.56 727.471 1601.91 722.945 1607.28 722.945C1612.65 722.945 1617 727.471 1617 733.056V839.222Z" fill="url(#paint3_linear_1_667)"/>
<path d="M210.24 729H205.881V701.268C201.884 700.541 198.978 697.393 196.556 691.822L177.301 648.347H182.024L200.552 690.611C202.49 695.092 204.548 697.514 208.181 697.514C211.936 697.514 213.873 695.092 215.932 690.611L234.581 648.347H239.425L219.807 691.822C217.385 697.393 214.479 700.541 210.24 701.268V729ZM271.404 730.09C254.329 730.09 241.008 716.406 241.008 699.694C241.008 682.982 254.571 669.419 271.404 669.419C288.6 669.419 301.558 683.103 301.558 699.694C301.558 716.406 288.358 730.09 271.404 730.09ZM271.404 725.972C285.694 725.972 297.32 714.105 297.32 699.694C297.32 685.404 285.694 673.536 271.404 673.536C256.872 673.536 245.368 685.404 245.368 699.694C245.368 714.105 256.872 725.972 271.404 725.972ZM343.423 725.972C357.591 725.972 366.068 714.105 366.068 700.42V670.63H370.307V700.784C370.307 717.495 359.771 730.09 343.423 730.09C327.316 730.09 317.023 717.374 317.023 700.663V670.63H321.261V700.541C321.261 714.105 329.375 725.972 343.423 725.972ZM394.601 729H390.362V692.186C390.362 678.986 398.113 670.024 410.223 670.024C413.734 670.024 417.004 670.751 420.032 672.325V676.806C417.125 674.989 413.856 674.142 410.465 674.142C400.777 674.142 394.601 681.408 394.601 692.428V729ZM468.396 755.763H464.157V699.694C464.157 682.74 477.721 669.419 494.554 669.419C511.75 669.419 524.707 683.103 524.707 699.694C524.707 716.527 511.629 730.211 494.675 730.211C483.049 730.211 473.24 723.55 468.517 713.863L468.396 755.763ZM494.554 726.094C508.964 726.094 520.469 714.105 520.469 699.694C520.469 685.404 508.964 673.536 494.554 673.536C480.022 673.536 468.517 685.404 468.517 699.694C468.517 714.105 480.022 726.094 494.554 726.094ZM566.337 730.09C549.505 730.09 536.426 716.406 536.426 699.694C536.426 683.103 549.383 669.419 566.701 669.419C583.534 669.419 596.976 682.74 596.976 699.694V729H592.858V712.894C588.378 723.066 578.447 730.09 566.337 730.09ZM566.701 725.972C581.112 725.972 592.737 714.105 592.737 699.694C592.737 685.404 581.112 673.536 566.701 673.536C552.29 673.536 540.785 685.404 540.785 699.694C540.785 714.105 552.29 725.972 566.701 725.972ZM622.136 729H617.898V692.186C617.898 678.986 625.648 670.024 637.758 670.024C641.27 670.024 644.54 670.751 647.567 672.325V676.806C644.661 674.989 641.391 674.142 638 674.142C628.312 674.142 622.136 681.408 622.136 692.428V729ZM663.348 729H659.11V643.746H663.348V697.756H673.157C673.642 695.697 674.731 693.76 676.669 691.943L699.557 670.63H705.249L679.454 694.729C677.88 696.303 676.911 697.998 676.911 699.815C676.911 701.51 677.88 703.327 679.454 704.78L705.249 729H699.315L676.548 707.686C674.731 705.87 673.52 703.932 673.157 701.752H663.348V729ZM725.269 654.645C723.21 654.645 721.636 653.07 721.636 650.89C721.636 648.59 723.21 647.015 725.269 647.015C727.449 647.015 728.902 648.59 728.902 650.89C728.902 653.07 727.449 654.645 725.269 654.645ZM723.089 670.63H727.328V729H723.089V670.63ZM777.711 673.536C763.179 673.536 754.944 685.404 754.944 698.967V729H750.706V698.846C750.706 682.134 760.999 669.419 777.711 669.419C794.786 669.419 805.322 682.013 805.322 698.725V729H801.083V699.088C801.083 685.404 792.606 673.536 777.711 673.536ZM852.92 756.974C841.779 756.974 831.364 752.13 826.036 742.805L829.669 740.626C834.391 748.86 843.232 752.857 852.799 752.857C868.542 752.857 879.562 741.231 879.441 724.035L879.32 713.257C874.96 723.066 865.151 730.09 853.041 730.09C836.329 730.09 823.129 716.406 823.129 699.694C823.129 683.103 836.087 669.419 853.404 669.419C870.237 669.419 883.679 682.74 883.679 699.694V724.519C883.679 744.137 870.964 756.974 852.92 756.974ZM853.404 725.972C867.815 725.972 879.32 714.105 879.32 699.694C879.32 685.283 867.815 673.536 853.404 673.536C838.993 673.536 827.489 685.283 827.489 699.694C827.489 714.105 838.993 725.972 853.404 725.972ZM964.998 730.09C948.165 730.09 935.086 716.406 935.086 699.694C935.086 683.103 948.044 669.419 965.361 669.419C982.194 669.419 995.636 682.74 995.636 699.694V729H991.519V712.894C987.038 723.066 977.108 730.09 964.998 730.09ZM965.361 725.972C979.772 725.972 991.398 714.105 991.398 699.694C991.398 685.404 979.772 673.536 965.361 673.536C950.95 673.536 939.446 685.404 939.446 699.694C939.446 714.105 950.95 725.972 965.361 725.972ZM1034.97 729.848C1025.88 729.848 1017.89 725.73 1013.65 717.374L1017.28 715.316C1021.04 722.703 1027.34 725.73 1034.84 725.73C1043.56 725.73 1051.07 721.25 1051.07 713.378C1051.07 695.576 1015.59 707.807 1015.59 685.888C1015.59 676.443 1024.43 670.024 1034.48 670.024C1042.96 670.024 1050.1 673.536 1054.1 680.681L1050.47 682.74C1046.95 676.321 1041.14 674.142 1034.6 674.142C1027.09 674.142 1019.95 678.743 1019.95 685.888C1019.95 703.206 1055.43 691.217 1055.43 713.378C1055.43 723.55 1045.86 729.848 1034.97 729.848ZM1091.73 729.848C1082.65 729.848 1074.66 725.73 1070.42 717.374L1074.05 715.316C1077.8 722.703 1084.1 725.73 1091.61 725.73C1100.33 725.73 1107.84 721.25 1107.84 713.378C1107.84 695.576 1072.35 707.807 1072.35 685.888C1072.35 676.443 1081.2 670.024 1091.25 670.024C1099.72 670.024 1106.87 673.536 1110.86 680.681L1107.23 682.74C1103.72 676.321 1097.91 674.142 1091.37 674.142C1083.86 674.142 1076.71 678.743 1076.71 685.888C1076.71 703.206 1112.2 691.217 1112.2 713.378C1112.2 723.55 1102.63 729.848 1091.73 729.848ZM1134.69 654.645C1132.63 654.645 1131.06 653.07 1131.06 650.89C1131.06 648.59 1132.63 647.015 1134.69 647.015C1136.87 647.015 1138.32 648.59 1138.32 650.89C1138.32 653.07 1136.87 654.645 1134.69 654.645ZM1132.51 670.63H1136.75V729H1132.51V670.63ZM1178.53 729.848C1169.45 729.848 1161.46 725.73 1157.22 717.374L1160.85 715.316C1164.61 722.703 1170.91 725.73 1178.41 725.73C1187.13 725.73 1194.64 721.25 1194.64 713.378C1194.64 695.576 1159.16 707.807 1159.16 685.888C1159.16 676.443 1168 670.024 1178.05 670.024C1186.53 670.024 1193.67 673.536 1197.67 680.681L1194.04 682.74C1190.52 676.321 1184.71 674.142 1178.17 674.142C1170.66 674.142 1163.52 678.743 1163.52 685.888C1163.52 703.206 1199 691.217 1199 713.378C1199 723.55 1189.43 729.848 1178.53 729.848ZM1238.33 730.211C1227.55 730.211 1220.77 722.824 1220.77 711.198V674.626H1207.69V670.63H1220.77V655.008H1225.01V670.63H1249.83V674.626H1225.01V711.077C1225.01 720.523 1230.34 726.094 1238.57 726.094C1243.05 726.094 1246.93 724.398 1249.83 721.734V726.215C1246.81 728.637 1242.69 730.211 1238.33 730.211ZM1292.82 730.09C1275.99 730.09 1262.91 716.406 1262.91 699.694C1262.91 683.103 1275.87 669.419 1293.18 669.419C1310.02 669.419 1323.46 682.74 1323.46 699.694V729H1319.34V712.894C1314.86 723.066 1304.93 730.09 1292.82 730.09ZM1293.18 725.972C1307.59 725.972 1319.22 714.105 1319.22 699.694C1319.22 685.404 1307.59 673.536 1293.18 673.536C1278.77 673.536 1267.27 685.404 1267.27 699.694C1267.27 714.105 1278.77 725.972 1293.18 725.972ZM1371.38 673.536C1356.85 673.536 1348.62 685.404 1348.62 698.967V729H1344.38V698.846C1344.38 682.134 1354.67 669.419 1371.38 669.419C1388.46 669.419 1399 682.013 1399 698.725V729H1394.76V699.088C1394.76 685.404 1386.28 673.536 1371.38 673.536ZM1441.27 730.211C1430.49 730.211 1423.71 722.824 1423.71 711.198V674.626H1410.63V670.63H1423.71V655.008H1427.94V670.63H1452.77V674.626H1427.94V711.077C1427.94 720.523 1433.27 726.094 1441.51 726.094C1445.99 726.094 1449.86 724.398 1452.77 721.734V726.215C1449.74 728.637 1445.62 730.211 1441.27 730.211Z" fill="#0157FD"/>
<path d="M275.499 539H240.741V176.209H275.499V341.855H491.11V176.209H525.869V539H491.11V374.441H275.499V539ZM743.715 544.431C667.681 544.431 610.113 482.518 610.113 406.484C610.113 331.536 669.311 269.622 748.06 269.622C825.723 269.622 886.551 329.363 886.551 406.484V539H854.508V477.63C834.413 517.276 793.68 544.431 743.715 544.431ZM748.06 512.388C806.715 512.388 852.878 464.595 852.878 407.027C852.878 349.458 806.715 301.665 748.06 301.665C689.948 301.665 643.785 349.458 643.785 407.027C643.785 464.595 689.948 512.388 748.06 512.388ZM1098.79 301.665C1039.05 301.665 1007 351.087 1007 407.027V539H973.332V404.311C973.332 328.277 1019.5 269.622 1098.79 269.622C1179.71 269.622 1226.96 327.734 1226.96 403.768V539H1193.29V407.57C1193.29 351.087 1160.16 301.665 1098.79 301.665ZM1341.53 212.054C1327.95 212.054 1317.09 201.192 1317.09 187.071C1317.09 172.951 1327.95 162.089 1341.53 162.089C1355.11 162.089 1365.42 172.951 1365.42 187.071C1365.42 201.192 1355.11 212.054 1341.53 212.054ZM1324.69 275.597H1358.36V539H1324.69V275.597Z" fill="url(#paint4_linear_1_667)"/>
<defs>
<linearGradient id="paint0_linear_1_667" x1="42" y1="909.998" x2="1617" y2="909.998" gradientUnits="userSpaceOnUse">
<stop stop-color="#66DFF9"/>
<stop offset="0.498806" stop-color="#48A1EE"/>
<stop offset="1" stop-color="#0023D5"/>
</linearGradient>
<linearGradient id="paint1_linear_1_667" x1="42" y1="909.998" x2="1617" y2="909.998" gradientUnits="userSpaceOnUse">
<stop stop-color="#66DFF9"/>
<stop offset="0.498806" stop-color="#48A1EE"/>
<stop offset="1" stop-color="#0023D5"/>
</linearGradient>
<linearGradient id="paint2_linear_1_667" x1="42" y1="909.998" x2="1617" y2="909.998" gradientUnits="userSpaceOnUse">
<stop stop-color="#66DFF9"/>
<stop offset="0.498806" stop-color="#48A1EE"/>
<stop offset="1" stop-color="#0023D5"/>
</linearGradient>
<linearGradient id="paint3_linear_1_667" x1="42" y1="909.998" x2="1617" y2="909.998" gradientUnits="userSpaceOnUse">
<stop stop-color="#66DFF9"/>
<stop offset="0.498806" stop-color="#48A1EE"/>
<stop offset="1" stop-color="#0023D5"/>
</linearGradient>
<linearGradient id="paint4_linear_1_667" x1="181" y1="538.999" x2="1413" y2="538.999" gradientUnits="userSpaceOnUse">
<stop stop-color="#66DFF9"/>
<stop offset="0.498806" stop-color="#48A1EE"/>
<stop offset="1" stop-color="#0023D5"/>
</linearGradient>
</defs>
</svg>
