<svg width="20" height="20" viewBox="0 0 20 20" fill="none" xmlns="http://www.w3.org/2000/svg">
<path d="M18.3333 8.33341V7.68132C18.3333 6.06497 18.3333 5.25681 17.8451 4.75466C17.357 4.25253 16.5713 4.25253 15 4.25253H13.2678C12.5033 4.25253 12.497 4.25105 11.8095 3.90703L9.03321 2.5177C7.87399 1.93761 7.29439 1.64757 6.67694 1.66773C6.05948 1.68789 5.49893 2.01515 4.37783 2.66967L3.35461 3.26706C2.53112 3.74782 2.11937 3.98821 1.89299 4.38811C1.66663 4.78802 1.66663 5.27502 1.66663 6.24902V13.0965C1.66663 14.3762 1.66663 15.0162 1.95184 15.3723C2.14163 15.6092 2.40759 15.7686 2.70163 15.8214C3.14351 15.9007 3.68453 15.5849 4.76652 14.9532C5.50126 14.5242 6.20838 14.0787 7.08735 14.1996C7.82387 14.3007 8.50829 14.7655 9.16663 15.0949" stroke="white" stroke-width="1.25" stroke-linecap="round" stroke-linejoin="round"/>
<path d="M6.66663 1.66675V14.1667" stroke="white" stroke-width="1.25" stroke-linejoin="round"/>
<path d="M12.4999 4.16675V7.91675" stroke="white" stroke-width="1.25" stroke-linecap="round" stroke-linejoin="round"/>
<path d="M15.2568 18.0696C15.0762 18.2388 14.8347 18.3333 14.5833 18.3333C14.332 18.3333 14.0905 18.2388 13.9098 18.0696C12.2552 16.5108 10.0378 14.7696 11.1192 12.2415C11.7038 10.8747 13.1073 10 14.5833 10C16.0593 10 17.4628 10.8747 18.0475 12.2415C19.1275 14.7663 16.9156 16.5162 15.2568 18.0696Z" stroke="white" stroke-width="1.25"/>
<path d="M14.5833 13.75H14.5908" stroke="white" stroke-width="1.66667" stroke-linecap="round" stroke-linejoin="round"/>
</svg>
