<svg width="20" height="21" viewBox="0 0 20 21" fill="none" xmlns="http://www.w3.org/2000/svg">
<path d="M2.08325 10.8739C2.08325 7.34917 2.08325 5.58678 3.08156 4.41791C3.22332 4.25193 3.3779 4.09734 3.54389 3.95558C4.71275 2.95728 6.47514 2.95728 9.99992 2.95728C13.5247 2.95728 15.2871 2.95728 16.4559 3.95558C16.6219 4.09734 16.7765 4.25193 16.9183 4.41791C17.9166 5.58678 17.9166 7.34917 17.9166 10.8739C17.9166 14.3987 17.9166 16.1611 16.9183 17.3299C16.7765 17.4959 16.6219 17.6505 16.4559 17.7923C15.2871 18.7906 13.5247 18.7906 9.99992 18.7906C6.47514 18.7906 4.71275 18.7906 3.54389 17.7923C3.3779 17.6505 3.22332 17.4959 3.08156 17.3299C2.08325 16.1611 2.08325 14.3987 2.08325 10.8739Z" stroke="white" stroke-width="2"/>
<path d="M7.5 11.7073V7.87394C7.5 7.56373 7.5 7.40863 7.54078 7.28309C7.62322 7.0294 7.82212 6.83049 8.07582 6.74806C8.20135 6.70728 8.35642 6.70728 8.66667 6.70728H10.8333C12.2141 6.70728 13.3333 7.82657 13.3333 9.20728C13.3333 10.588 12.2141 11.7073 10.8333 11.7073H7.5ZM7.5 11.7073V15.8739" stroke="white" stroke-width="2" stroke-linecap="round" stroke-linejoin="round"/>
</svg>
